<svg width="141" height="136" viewBox="0 0 141 136" fill="none" xmlns="http://www.w3.org/2000/svg">
<ellipse cx="70.5" cy="68" rx="70.5" ry="68" fill="#FA3535"/>
<path d="M32.6 56.6H25.85V80H21.45V56.6H16.75V54.55L21.45 53.05V51.5C21.45 49.2 21.7833 47.3333 22.45 45.9C23.15 44.4667 24.15 43.4167 25.45 42.75C26.75 42.0833 28.3167 41.75 30.15 41.75C31.2167 41.75 32.1833 41.85 33.05 42.05C33.95 42.2167 34.7167 42.4167 35.35 42.65L34.2 46.1C33.6667 45.9333 33.05 45.7667 32.35 45.6C31.65 45.4333 30.9333 45.35 30.2 45.35C28.7333 45.35 27.6333 45.85 26.9 46.85C26.2 47.8167 25.85 49.35 25.85 51.45V53.2H32.6V56.6ZM60.7375 66.55C60.7375 68.7833 60.4375 70.7667 59.8375 72.5C59.2708 74.2 58.4375 75.65 57.3375 76.85C56.2708 78.05 54.9542 78.9667 53.3875 79.6C51.8542 80.2 50.1375 80.5 48.2375 80.5C46.4708 80.5 44.8375 80.2 43.3375 79.6C41.8375 78.9667 40.5375 78.05 39.4375 76.85C38.3375 75.65 37.4708 74.2 36.8375 72.5C36.2375 70.7667 35.9375 68.7833 35.9375 66.55C35.9375 63.5833 36.4375 61.0833 37.4375 59.05C38.4375 56.9833 39.8708 55.4167 41.7375 54.35C43.6042 53.25 45.8208 52.7 48.3875 52.7C50.8208 52.7 52.9542 53.25 54.7875 54.35C56.6542 55.4167 58.1042 56.9833 59.1375 59.05C60.2042 61.0833 60.7375 63.5833 60.7375 66.55ZM40.4875 66.55C40.4875 68.65 40.7542 70.4833 41.2875 72.05C41.8542 73.5833 42.7208 74.7667 43.8875 75.6C45.0542 76.4333 46.5375 76.85 48.3375 76.85C50.1375 76.85 51.6208 76.4333 52.7875 75.6C53.9542 74.7667 54.8042 73.5833 55.3375 72.05C55.9042 70.4833 56.1875 68.65 56.1875 66.55C56.1875 64.4167 55.9042 62.6 55.3375 61.1C54.7708 59.6 53.9042 58.45 52.7375 57.65C51.6042 56.8167 50.1208 56.4 48.2875 56.4C45.5542 56.4 43.5708 57.3 42.3375 59.1C41.1042 60.9 40.4875 63.3833 40.4875 66.55ZM91.0109 66.55C91.0109 68.7833 90.7109 70.7667 90.1109 72.5C89.5443 74.2 88.7109 75.65 87.6109 76.85C86.5443 78.05 85.2276 78.9667 83.6609 79.6C82.1276 80.2 80.4109 80.5 78.5109 80.5C76.7443 80.5 75.1109 80.2 73.6109 79.6C72.1109 78.9667 70.8109 78.05 69.7109 76.85C68.6109 75.65 67.7443 74.2 67.1109 72.5C66.5109 70.7667 66.2109 68.7833 66.2109 66.55C66.2109 63.5833 66.7109 61.0833 67.7109 59.05C68.7109 56.9833 70.1443 55.4167 72.0109 54.35C73.8776 53.25 76.0943 52.7 78.6609 52.7C81.0943 52.7 83.2276 53.25 85.0609 54.35C86.9276 55.4167 88.3776 56.9833 89.4109 59.05C90.4776 61.0833 91.0109 63.5833 91.0109 66.55ZM70.7609 66.55C70.7609 68.65 71.0276 70.4833 71.5609 72.05C72.1276 73.5833 72.9943 74.7667 74.1609 75.6C75.3276 76.4333 76.8109 76.85 78.6109 76.85C80.4109 76.85 81.8943 76.4333 83.0609 75.6C84.2276 74.7667 85.0776 73.5833 85.6109 72.05C86.1776 70.4833 86.4609 68.65 86.4609 66.55C86.4609 64.4167 86.1776 62.6 85.6109 61.1C85.0443 59.6 84.1776 58.45 83.0109 57.65C81.8776 56.8167 80.3943 56.4 78.5609 56.4C75.8276 56.4 73.8443 57.3 72.6109 59.1C71.3776 60.9 70.7609 63.3833 70.7609 66.55ZM107.484 80.5C104.151 80.5 101.484 79.35 99.4844 77.05C97.4844 74.7167 96.4844 71.25 96.4844 66.65C96.4844 62.05 97.4844 58.5833 99.4844 56.25C101.518 53.8833 104.201 52.7 107.534 52.7C108.934 52.7 110.151 52.8833 111.184 53.25C112.218 53.5833 113.118 54.05 113.884 54.65C114.651 55.25 115.301 55.9167 115.834 56.65H116.134C116.101 56.2167 116.034 55.5833 115.934 54.75C115.868 53.8833 115.834 53.2 115.834 52.7V42H120.234V80H116.684L116.034 76.4H115.834C115.301 77.1667 114.651 77.8667 113.884 78.5C113.118 79.1 112.201 79.5833 111.134 79.95C110.101 80.3167 108.884 80.5 107.484 80.5ZM108.184 76.85C111.018 76.85 113.001 76.0833 114.134 74.55C115.301 72.9833 115.884 70.6333 115.884 67.5V66.7C115.884 63.3667 115.334 60.8167 114.234 59.05C113.134 57.25 111.101 56.35 108.134 56.35C105.768 56.35 103.984 57.3 102.784 59.2C101.618 61.0667 101.034 63.5833 101.034 66.75C101.034 69.95 101.618 72.4333 102.784 74.2C103.984 75.9667 105.784 76.85 108.184 76.85Z" fill="#FFFCFC"/>
<path d="M92.4375 88.8594V87.5312C92.4375 86.4375 92.776 85.6302 93.4531 85.1094C94.1302 84.5365 94.8854 84.25 95.7188 84.25C96.6042 84.25 97.2552 84.4062 97.6719 84.7188C98.1406 85.0312 98.375 85.3958 98.375 85.8125C98.375 86.0208 98.3229 86.2031 98.2188 86.3594C98.1146 86.5156 97.9062 86.5938 97.5938 86.5938C97.3854 86.5938 97.2031 86.5417 97.0469 86.4375C96.9427 86.3333 96.8906 86.151 96.8906 85.8906C96.8906 85.8385 96.8906 85.7604 96.8906 85.6562C96.9427 85.5521 96.9688 85.474 96.9688 85.4219C96.9688 85.2135 96.8906 85.0573 96.7344 84.9531C96.5781 84.7969 96.2135 84.7188 95.6406 84.7188C95.0156 84.7188 94.4948 84.9271 94.0781 85.3438C93.7135 85.7083 93.5312 86.3594 93.5312 87.2969V88.8594H96.8125V89.3281H93.5312V96.5156C93.5312 96.724 93.5833 96.8802 93.6875 96.9844C93.8438 97.0885 94.026 97.1406 94.2344 97.1406H96.1094V97.6094H90.4062V97.1406H91.7344C91.9948 97.1406 92.1771 97.0885 92.2812 96.9844C92.3854 96.8802 92.4375 96.724 92.4375 96.5156V89.3281H90.0156V88.8594H92.4375ZM102.125 96.4375C102.438 96.75 102.88 96.9062 103.453 96.9062C104.078 96.9062 104.599 96.75 105.016 96.4375C105.484 96.125 105.823 95.6302 106.031 94.9531V90.0312C106.031 89.8229 105.979 89.6667 105.875 89.5625C105.771 89.4062 105.589 89.3281 105.328 89.3281H104.859V88.8594H105.328C105.641 88.8594 105.927 88.8333 106.188 88.7812C106.448 88.7292 106.708 88.599 106.969 88.3906H107.125V96.0469C107.125 96.2552 107.177 96.4115 107.281 96.5156C107.438 96.6198 107.62 96.6719 107.828 96.6719H108.297V97.1406H107.828C107.568 97.1406 107.307 97.1927 107.047 97.2969C106.786 97.349 106.5 97.4531 106.188 97.6094H106.031V95.9688C105.771 96.5417 105.38 96.9844 104.859 97.2969C104.339 97.5573 103.74 97.6875 103.062 97.6875C102.229 97.6875 101.604 97.4531 101.188 96.9844C100.771 96.5156 100.562 95.7604 100.562 94.7188V90.0312C100.562 89.8229 100.51 89.6667 100.406 89.5625C100.302 89.4062 100.12 89.3281 99.8594 89.3281H99.3906V88.8594H99.8594C100.172 88.8594 100.458 88.8333 100.719 88.7812C100.979 88.7292 101.24 88.599 101.5 88.3906H101.656V94.875C101.656 95.6042 101.812 96.125 102.125 96.4375ZM112.828 97.6094H109.547V97.1406H109.938C110.198 97.1406 110.38 97.0885 110.484 96.9844C110.589 96.8802 110.641 96.724 110.641 96.5156V89.7969C110.641 89.6406 110.615 89.5365 110.562 89.4844C110.51 89.3802 110.406 89.3281 110.25 89.3281H109.625V88.8594H110.172C110.432 88.8594 110.667 88.8333 110.875 88.7812C111.135 88.7292 111.37 88.625 111.578 88.4688H111.734V90.2656C112.203 89.7448 112.672 89.3542 113.141 89.0938C113.609 88.8333 114.104 88.7031 114.625 88.7031C115.51 88.7031 116.161 88.9375 116.578 89.4062C116.995 89.875 117.203 90.5781 117.203 91.5156V96.5156C117.203 96.724 117.255 96.8802 117.359 96.9844C117.516 97.0885 117.698 97.1406 117.906 97.1406H118.297V97.6094H115.016V97.1406H115.406C115.667 97.1406 115.849 97.0885 115.953 96.9844C116.057 96.8802 116.109 96.724 116.109 96.5156V91.2812C116.109 90.6562 115.979 90.1875 115.719 89.875C115.458 89.5104 115.068 89.3281 114.547 89.3281C114.078 89.3281 113.583 89.4844 113.062 89.7969C112.594 90.1094 112.151 90.5521 111.734 91.125V96.5156C111.734 96.724 111.786 96.8802 111.891 96.9844C112.047 97.0885 112.229 97.1406 112.438 97.1406H112.828V97.6094Z" fill="white"/>
</svg>
